<?xml version="1.0" encoding="UTF-8"?>
<!DOCTYPE svg PUBLIC "-//W3C//DTD SVG 1.1//EN" "http://www.w3.org/Graphics/SVG/1.1/DTD/svg11.dtd">
<!-- Creator: CorelDRAW 2021 (64 Bit) -->
<svg xmlns="http://www.w3.org/2000/svg" xml:space="preserve" width="44.6132mm" height="40.7636mm" version="1.1" style="shape-rendering:geometricPrecision; text-rendering:geometricPrecision; image-rendering:optimizeQuality; fill-rule:evenodd; clip-rule:evenodd"
viewBox="0 0 1282.79 1172.1"
 xmlns:xlink="http://www.w3.org/1999/xlink"
 xmlns:xodm="http://www.corel.com/coreldraw/odm/2003">
 <defs>
  <style type="text/css">
   <![CDATA[
    .fil0 {fill:url(#id0)}
    .fil1 {fill:url(#id1)}
    .fil2 {fill:url(#id2)}
    .fil4 {fill:url(#id3)}
    .fil5 {fill:url(#id4)}
    .fil3 {fill:url(#id5)}
   ]]>
  </style>
  <linearGradient id="id0" gradientUnits="userSpaceOnUse" x1="514.65" y1="291.49" x2="1218.78" y2="953.7">
   <stop offset="0" style="stop-opacity:1; stop-color:#00FF59"/>
   <stop offset="0.2" style="stop-opacity:1; stop-color:#00EDA2"/>
   <stop offset="0.529412" style="stop-opacity:1; stop-color:#00DBEB"/>
   <stop offset="0.905882" style="stop-opacity:1; stop-color:#0072F5"/>
   <stop offset="1" style="stop-opacity:1; stop-color:#0009FF"/>
  </linearGradient>
  <linearGradient id="id1" gradientUnits="userSpaceOnUse" x1="1108.14" y1="50.7" x2="208.51" y2="499.76">
   <stop offset="0" style="stop-opacity:1; stop-color:#00A6FF"/>
   <stop offset="1" style="stop-opacity:1; stop-color:#00FFA6"/>
  </linearGradient>
  <linearGradient id="id2" gradientUnits="userSpaceOnUse" x1="370.04" y1="923.83" x2="959.41" y2="271.32">
   <stop offset="0" style="stop-opacity:1; stop-color:#0E44CC"/>
   <stop offset="1" style="stop-opacity:1; stop-color:#00C4FF"/>
  </linearGradient>
  <linearGradient id="id3" gradientUnits="userSpaceOnUse" x1="243.85" y1="872.92" x2="161.24" y2="967.52">
   <stop offset="0" style="stop-opacity:1; stop-color:#038AF2"/>
   <stop offset="1" style="stop-opacity:1; stop-color:#00E1FF"/>
  </linearGradient>
  <linearGradient id="id4" gradientUnits="userSpaceOnUse" x1="407.13" y1="1048.78" x2="350.31" y2="1113.84">
   <stop offset="0" style="stop-opacity:1; stop-color:#00E1FF"/>
   <stop offset="1" style="stop-opacity:1; stop-color:#0800FF"/>
  </linearGradient>
  <linearGradient id="id5" gradientUnits="userSpaceOnUse" x1="52.38" y1="615.56" x2="173" y2="723.66">
   <stop offset="0" style="stop-opacity:1; stop-color:#00FF7B"/>
   <stop offset="0.411765" style="stop-opacity:1; stop-color:#00E6BD"/>
   <stop offset="1" style="stop-opacity:1; stop-color:#00CCFF"/>
  </linearGradient>
 </defs>
 <g id="Camada_x0020_1">
  <metadata id="CorelCorpID_0Corel-Layer"/>
  <path class="fil0" d="M698.42 1172.1c-88.56,0 -172.51,-19.69 -247.78,-54.85 59.7,23.07 124.57,35.75 192.4,35.75 294.89,0 533.94,-239.05 533.94,-533.94 0,-294.89 -239.05,-533.94 -533.94,-533.94 -37.73,0 -74.54,3.93 -110.06,11.37 14.32,-4.13 28.87,-7.74 43.63,-10.82 233.31,-48.59 473.17,46.24 610.18,241.24 263.67,375.28 -54.2,845.19 -488.38,845.19zm365.13 -170.07c43.09,-36.9 80.75,-80.56 111.06,-130 102.81,-167.7 97.68,-362.85 -16.31,-525.1 -20.8,-29.6 -44.15,-56.76 -69.6,-81.29 77.07,97.05 123.11,219.86 123.11,353.42 0,147.51 -56.16,281.91 -148.26,382.97z"/>
  <path class="fil1" d="M698.42 0c214.89,0 402.74,115.68 504.74,288.15 -141.05,-198.44 -388.04,-293.19 -626.35,-238.88 -191.06,43.54 -345.64,175.87 -420.62,350.28 -21.26,47.07 -35.88,97.77 -42.7,150.92 18.4,-307.09 273.22,-550.46 584.94,-550.46z"/>
  <path class="fil2" d="M674.89 427.99l-72.45 -131.41c-1.23,0.17 -2.49,0.25 -3.77,0.25 -4.64,0 -9.02,-1.15 -12.86,-3.17l-145.39 127.47c2.1,4.04 3.55,8.48 4.21,13.17l212.05 21.28c3.15,-10.98 9.6,-20.55 18.21,-27.59zm411.14 176.47c12.31,4.55 21.09,16.39 21.09,30.29 0,15.66 -11.15,28.7 -25.95,31.64 -9.08,59.48 -30.55,114.89 -61.69,163.51 2.61,4.66 4.08,10.01 4.08,15.73 0,17.82 -14.47,32.26 -32.29,32.26 -2.37,0 -4.67,-0.26 -6.89,-0.74 -7.11,8.3 -14.54,16.33 -22.28,24.06 -33.89,33.89 -73.51,62.05 -117.28,82.93 0.16,1.37 0.25,2.75 0.25,4.15 0,19.39 -15.71,35.12 -35.1,35.12 -11.93,0 -22.46,-5.94 -28.81,-15.03 -37.53,10.91 -77.21,16.75 -118.25,16.75 -14.64,0 -29.09,-0.75 -43.34,-2.2 -4.33,7.2 -12.22,12.01 -21.22,12.01 -11.73,0 -21.56,-8.16 -24.1,-19.12 -58.93,-12.57 -113.33,-37.41 -160.38,-71.71 -7.01,4.76 -15.47,7.55 -24.58,7.55 -24.21,0 -43.82,-19.61 -43.82,-43.8 0,-7.39 1.83,-14.36 5.06,-20.46 -34.76,-38.02 -62.66,-82.42 -81.76,-131.24 -15.83,-0.15 -28.61,-13.03 -28.61,-28.87 0,-9.65 4.72,-18.18 11.99,-23.43 -8.06,-32.62 -12.35,-66.72 -12.35,-101.82 0,-26.98 2.52,-53.37 7.35,-78.95 -14.56,-6 -24.82,-20.32 -24.82,-37.05 0,-22.13 17.93,-40.08 40.05,-40.08 2.35,0 4.67,0.2 6.91,0.59 21.47,-54.31 53.84,-103.11 94.44,-143.71 4.99,-4.99 10.1,-9.85 15.33,-14.59 -4.02,-5.45 -6.4,-12.18 -6.4,-19.47 0,-18.12 14.68,-32.81 32.81,-32.81 10.29,0 19.46,4.74 25.48,12.15 59.66,-39.18 129.83,-63.69 205.36,-68.38 3.4,-11.31 13.89,-19.54 26.3,-19.54 12.4,0 22.87,8.21 26.29,19.5 64.83,3.93 125.72,22.46 179.43,52.34 2.71,-0.7 5.56,-1.07 8.48,-1.07 16.56,0 30.34,11.9 33.26,27.61 18.52,13.35 35.92,28.15 52.03,44.26 18.65,18.65 35.56,39.04 50.48,60.89 3.46,-1.04 7.13,-1.6 10.93,-1.6 20.98,0 37.99,17.01 37.99,37.99 0,11.23 -4.87,21.32 -12.62,28.28 23.87,52.98 37.16,111.75 37.16,173.63l-0.01 2.42zm-24.58 59.65c-11.14,-5.09 -18.88,-16.31 -18.88,-29.36 0,-2.85 0.38,-5.62 1.07,-8.25l-49.77 -49.62c-1.46,0.78 -2.97,1.45 -4.55,2.01l10.46 235.58c1.68,0.46 3.32,1.05 4.89,1.77 28.52,-45.42 48.25,-96.93 56.78,-152.13zm-6.79 -54.55c3.36,-2.7 7.27,-4.73 11.54,-5.92l0 -1.61c0,-58.66 -12.53,-114.4 -35.05,-164.67 -2.47,0.5 -5.03,0.76 -7.64,0.76 -1.3,0 -2.58,-0.07 -3.86,-0.2l-23.22 80.93c9.22,6.02 15.31,16.43 15.31,28.25 0,5.7 -1.42,11.06 -3.91,15.77l46.83 46.68zm-372.62 246.59c6.1,0 11.91,1.24 17.19,3.47l72.54 -100.12c-4.21,-5.03 -7.23,-11.11 -8.6,-17.78l-193.81 -8.23c-1.56,6.16 -4.31,11.86 -7.98,16.82l99.42 111.3c6.3,-3.48 13.54,-5.46 21.25,-5.46zm33.22 15.1c3.11,3.57 5.66,7.63 7.5,12.07 64.06,-10.82 183.69,-31.1 236.37,-40.51 0.13,-1.5 0.35,-2.96 0.68,-4.4l-128.29 -76.32c-7.33,7.36 -17.48,11.91 -28.69,11.91 -5.31,0 -10.38,-1.02 -15.03,-2.88l-72.54 100.12zm10.79 31.47c-0.27,4.82 -1.32,9.43 -3.01,13.72l64.78 44.59c6.04,-4.92 13.75,-7.86 22.15,-7.86 10.88,0 20.6,4.95 27.03,12.72 41.44,-19.86 78.96,-46.58 111.08,-78.7 6.54,-6.54 12.86,-13.3 18.93,-20.28 -1.62,-1.85 -3.04,-3.88 -4.21,-6.07 -57.86,11.01 -174.08,31.12 -236.76,41.89zm-14.23 30c-7.84,7.19 -18.3,11.58 -29.78,11.58 -7.17,0 -13.94,-1.71 -19.92,-4.75l-45.24 54.27c2.38,2.69 4.18,5.9 5.22,9.43 13.43,1.35 27.04,2.05 40.82,2.05 38.85,0 76.42,-5.49 111.96,-15.75l-0.02 -1.27c0,-3.83 0.61,-7.52 1.75,-10.97l-64.78 -44.59zm-64.86 -5.84c-3.5,-4.6 -6.11,-9.91 -7.59,-15.66l-207.14 5.4c-0.93,4.56 -2.57,8.88 -4.8,12.81 44.27,31.9 95.28,55.03 150.46,66.88 4.41,-6.49 11.83,-10.77 20.24,-10.84l48.83 -58.58zm-8.11 -35.42c1.23,-6.12 3.73,-11.78 7.21,-16.69l-99.42 -111.3c-7.11,4.11 -15.35,6.46 -24.14,6.46 -6.94,0 -13.53,-1.46 -19.49,-4.09l-80.85 113.06c4.48,5.08 7.8,11.21 9.55,17.97l207.14 -5.4zm362.24 -460.67c-9.44,-6.92 -15.57,-18.08 -15.57,-30.68 0,-10.01 3.88,-19.12 10.22,-25.9 -14.1,-20.58 -30.07,-39.77 -47.65,-57.35 -12.96,-12.96 -26.8,-25.04 -41.41,-36.15 -2.36,4.41 -5.66,8.23 -9.64,11.2l79.4 221.51 0.95 -0.03 23.71 -82.59zm-31.17 390.61c2.94,-2.6 6.36,-4.67 10.1,-6.06l-10.45 -235.58c-2.24,-0.58 -4.38,-1.39 -6.42,-2.39l-126.21 134.3c4.05,6.3 6.39,13.8 6.39,21.84 0,4.02 -0.59,7.91 -1.68,11.58l128.27 76.31zm-533.17 -542.69c-3.25,10.25 -11.41,18.32 -21.72,21.45l-1.01 99.95c4.85,1.24 9.36,3.35 13.35,6.14l145.39 -127.47 -0.16 -0.45c-45.16,0.28 -90.39,0.41 -135.85,0.37zm-149.36 176c3.48,2.78 6.48,6.12 8.87,9.9l66.28 -21.52c-0.07,-0.99 -0.11,-1.98 -0.11,-2.98 0,-9.47 3.19,-18.2 8.56,-25.16l-37 -46.33c-18.83,26.5 -34.55,55.38 -46.61,86.09zm14.98 28.73c0.05,0.85 0.08,1.71 0.08,2.58 0,11.53 -4.87,21.92 -12.68,29.23l52.75 95.84 40.29 -135.36c-5.77,-3.4 -10.63,-8.15 -14.17,-13.82l-66.28 21.52zm-29.94 41.37c-1.82,0.47 -3.69,0.81 -5.61,1.02 -4.72,24.67 -7.19,50.15 -7.19,76.19 0,33.24 4.03,65.55 11.61,96.45 3.07,0.23 5.99,0.95 8.72,2.05l53.42 -64.99 -60.95 -110.72zm22.18 189c2.12,4.02 3.32,8.6 3.32,13.46 0,8.95 -4.07,16.94 -10.47,22.25 17.92,45.57 43.9,87.08 76.17,122.8 2.79,-2.02 5.82,-3.71 9.05,-5.03l-33.67 -207.5 -44.41 54.03zm97.61 150.32c4.89,0.32 9.55,1.44 13.87,3.23l80.84 -113.05c-7.92,-8.61 -12.76,-20.09 -12.76,-32.71 0,-3.98 0.49,-7.86 1.39,-11.55l-117.5 -56.35 34.15 210.44zm556.51 -300.31c-2.7,-4.73 -4.3,-10.19 -4.42,-16l-184.86 -52.58c-4.87,9.89 -12.6,18.1 -22.12,23.57l61.73 174.38c1.24,-0.12 2.5,-0.17 3.77,-0.17 7.15,0 13.86,1.85 19.69,5.1l126.21 -134.29zm1 -35.06c2.18,-3.34 4.92,-6.29 8.11,-8.67l-79.41 -221.51 -1.61 0.04c-4.49,0 -8.78,-0.88 -12.7,-2.47l-112.36 138.65c8.33,9.68 13.36,22.27 13.36,36.04 0,1.81 -0.09,3.59 -0.26,5.35l184.87 52.57zm-507.06 -74.8c-2.75,7.76 -7.76,14.45 -14.23,19.28l84.75 200.92c3.01,-0.58 6.12,-0.9 9.3,-0.9 7.28,0 14.18,1.61 20.37,4.5l126.46 -169.3c-8.24,-8.86 -13.6,-20.44 -14.61,-33.23l-212.05 -21.28zm-32.43 26.97c-2.12,0.33 -4.28,0.51 -6.5,0.51 -0.65,0 -1.3,-0.02 -1.95,-0.05l-44.63 149.98 126.94 60.88c3.06,-4 6.74,-7.51 10.89,-10.39l-84.76 -200.93zm-23.78 -78.32c2.49,-1.14 5.1,-2.05 7.82,-2.69l0.99 -99.58c-6,5.33 -11.85,10.84 -17.52,16.51 -11.17,11.17 -21.68,23 -31.49,35.41l40.2 50.34zm377.54 319.36c2.72,-9.17 8.61,-16.98 16.39,-22.17l-61.73 -174.38c-2.87,0.46 -5.83,0.7 -8.83,0.7 -8.85,0 -17.21,-2.08 -24.63,-5.78l-126.46 169.29c5.87,6.66 9.94,14.95 11.44,24.1l193.82 8.24zm-76.59 -522.49c-4.42,9.25 -13.86,15.63 -24.79,15.63 -2.8,0 -5.5,-0.41 -8.04,-1.19l-32.22 41.1c0.75,1.24 1.39,2.55 1.95,3.92l220 -3.52c1.15,-3.98 3,-7.66 5.42,-10.89 -49.04,-25.67 -104.01,-41.55 -162.32,-45.05zm-48.38 2.25c-0.43,-0.72 -0.83,-1.46 -1.2,-2.23 -68.36,4.2 -132.12,25.43 -187.08,59.49l122.16 0.29c3.99,-10.35 14.01,-17.68 25.76,-17.68 2.84,0 5.57,0.43 8.14,1.22l32.22 -41.09zm-14.15 76.21c-1.12,3.36 -2.86,6.43 -5.09,9.07l72.44 131.38c5.53,-1.85 11.44,-2.86 17.6,-2.86 9.64,0 18.69,2.47 26.58,6.79l112.36 -138.63c-1.76,-2.6 -3.16,-5.47 -4.15,-8.52 -73.7,1.16 -146.71,2.13 -219.74,2.77z"/>
  <path class="fil3" d="M-0 649.17l0 -0c61.98,11.24 121.89,-30.27 133.13,-92.24l0 0c-11.24,61.98 30.27,121.88 92.24,133.13l0 0c-61.98,-11.24 -121.88,30.27 -133.13,92.25l-0 -0c11.24,-61.98 -30.27,-121.89 -92.24,-133.13z"/>
  <path class="fil4" d="M115.17 904.37l-0 -0c48.06,8.72 94.51,-23.47 103.23,-71.52l0 0c-8.72,48.06 23.47,94.51 71.52,103.23l0 0c-48.06,-8.72 -94.51,23.47 -103.23,71.53l-0 -0c8.72,-48.05 -23.47,-94.51 -71.52,-103.23z"/>
  <path class="fil5" d="M318.62 1070.41l0 -0c33.05,6 65,-16.14 71,-49.19l0 0c-6,33.05 16.14,65 49.19,71l0 0c-33.05,-6 -65,16.14 -71,49.19l0 -0c6,-33.05 -16.14,-65 -49.19,-71z"/>
 </g>
</svg>
