<svg width="37" height="40" viewBox="0 0 37 40" fill="none" xmlns="http://www.w3.org/2000/svg">
<path d="M20.2313 28.5874C20.005 28.5872 19.7838 28.5148 19.5952 28.3792C19.4066 28.2436 19.259 28.0508 19.1707 27.8249L18.5137 26.7124C18.0641 25.9499 17.4416 24.9124 16.7614 23.7374C13.1994 17.4999 11.5278 13.3374 11.5278 10.8999C11.6102 8.43835 12.5699 6.10739 14.205 4.39751C15.8401 2.68764 18.0231 1.73218 20.2947 1.73218C22.5663 1.73218 24.7493 2.68764 26.3844 4.39751C28.0196 6.10739 28.9792 8.43835 29.0616 10.8999C29.0616 13.9499 26.2719 19.5249 23.9317 23.6624C21.0613 28.5874 20.8999 28.5874 20.2313 28.5874ZM20.2313 3.91241C18.5312 3.92886 16.9057 4.67191 15.7078 5.98018C14.5099 7.28846 13.8364 9.05634 13.8334 10.8999C13.8334 11.9874 14.4789 14.9249 18.7788 22.4124C19.3667 23.4499 19.9316 24.3749 20.3466 25.0874C20.7731 24.3874 21.338 23.4499 21.9605 22.3499C25.0038 16.9749 26.756 12.7999 26.756 10.8999C26.753 9.97583 26.5816 9.06152 26.2517 8.20952C25.9217 7.35751 25.4397 6.58463 24.8334 5.93528C24.227 5.28594 23.5083 4.77295 22.7185 4.42579C21.9287 4.07864 21.0835 3.90417 20.2313 3.91241Z" fill="#FFF9F9"/>
<path d="M19.7908 38.6C19.5368 38.5984 19.2897 38.5153 19.084 38.3626C16.9999 36.85 14.6477 35.1875 13.8799 34.7126L2.35053 35.5501C2.10459 35.5777 1.85627 35.528 1.63857 35.4074C1.42087 35.2868 1.24411 35.1011 1.13178 34.875C1.02315 34.6553 0.980236 34.4076 1.00842 34.163C1.03661 33.9184 1.13465 33.6877 1.29021 33.5L9.82146 23.2501C10.0114 23.0214 10.2753 22.8705 10.5649 22.8251L16.744 21.8376C16.9797 21.8006 17.2208 21.8354 17.4374 21.9376C17.654 22.0398 17.8367 22.2049 17.9627 22.4126C18.5843 23.4501 19.1815 24.375 19.6202 25.0876C20.0711 24.3876 20.6683 23.4501 21.3265 22.35C21.4509 22.1401 21.6328 21.9725 21.8495 21.868C22.0663 21.7635 22.3083 21.7268 22.5452 21.7626L29.3215 22.7501C29.547 22.7829 29.7591 22.88 29.9336 23.0302C30.1081 23.1805 30.238 23.3779 30.3087 23.6C34.3427 36.1 34.3427 36.35 34.3427 36.6C34.3415 36.8468 34.2691 37.0877 34.1346 37.2924C34.0002 37.497 33.8097 37.6563 33.5871 37.75C33.3993 37.8299 33.1949 37.8603 32.9927 37.8385C32.7905 37.8167 32.5968 37.7433 32.4293 37.625C31.9783 37.3626 29.163 36 26.494 34.725L20.4002 38.475C20.211 38.57 20.0011 38.6131 19.7908 38.6ZM14.148 32.1875C14.5868 32.1875 14.7818 32.1875 19.8518 35.8626L25.8602 32.2376C26.0335 32.1455 26.2257 32.0974 26.4208 32.0974C26.616 32.0974 26.8082 32.1455 26.9815 32.2376L31.1252 34.1875C30.3452 31.6875 29.163 27.9376 28.2368 25.1126L22.984 24.35C20.4124 28.5876 20.2296 28.5876 19.5593 28.5876C19.32 28.5874 19.0862 28.5149 18.8868 28.3794C18.6874 28.2438 18.5313 28.051 18.438 27.8251L17.7433 26.7126C17.3655 26.1001 16.8658 25.3251 16.3174 24.4375L11.3815 25.2251L5.08053 32.8376C9.57771 32.5 13.9408 32.1875 14.148 32.1875ZM19.4983 14.0626C18.7921 14.0626 18.1017 13.8477 17.5144 13.4453C16.9272 13.0429 16.4695 12.4709 16.1992 11.8016C15.9289 11.1324 15.8582 10.396 15.996 9.68553C16.1338 8.97508 16.4739 8.32248 16.9733 7.81027C17.4727 7.29806 18.109 6.94924 18.8017 6.80792C19.4944 6.66661 20.2124 6.73914 20.8649 7.01634C21.5174 7.29355 22.0751 7.76298 22.4675 8.36527C22.8598 8.96757 23.0693 9.67568 23.0693 10.4001C23.0693 11.3714 22.6931 12.303 22.0234 12.9898C21.3537 13.6767 20.4454 14.0626 19.4983 14.0626ZM19.4983 9.23755C19.2742 9.23755 19.055 9.30573 18.8686 9.43347C18.6822 9.5612 18.537 9.74276 18.4512 9.95518C18.3654 10.1676 18.3429 10.4013 18.3867 10.6268C18.4304 10.8523 18.5384 11.0595 18.6969 11.2221C18.8554 11.3846 19.0574 11.4954 19.2772 11.5402C19.4971 11.5851 19.725 11.562 19.9321 11.4741C20.1392 11.3861 20.3162 11.2371 20.4408 11.0459C20.5653 10.8547 20.6318 10.63 20.6318 10.4001C20.6318 10.0917 20.5124 9.79605 20.2998 9.57804C20.0872 9.36003 19.7989 9.23755 19.4983 9.23755Z" fill="#FFF9F9"/>
</svg>
